<svg width="640" height="640" viewBox="0 0 640 640" fill="none" xmlns="http://www.w3.org/2000/svg">
<path d="M518.812 404.625C521.688 404.625 523.938 405.375 525.562 406.875C527.229 408.375 528.062 410.479 528.062 413.188C528.062 417.854 526.646 421.583 523.812 424.375C521.021 427.167 517.833 428.562 514.25 428.562C510.958 428.562 508.458 427.833 506.75 426.375C505.083 424.875 504.25 422.688 504.25 419.812C504.25 415.854 505.5 412.333 508 409.25C510.5 406.167 514.104 404.625 518.812 404.625ZM409.812 354.938C411.604 354.938 413.292 355.25 414.875 355.875C416.5 356.5 417.958 357.521 419.25 358.938C420.583 360.354 421.667 362.271 422.5 364.688H422.875L426.188 356.188H444.125L429 427H412.375L411.875 418.562H411.375C409.917 420.396 408.458 422.042 407 423.5C405.583 424.958 404.021 426.125 402.312 427C400.646 427.833 398.708 428.25 396.5 428.25C393.5 428.25 390.896 427.396 388.688 425.688C386.479 423.938 384.771 421.479 383.562 418.312C382.396 415.146 381.812 411.396 381.812 407.062C381.812 403.438 382.167 399.333 382.875 394.75C383.583 390.167 384.646 385.562 386.062 380.938C387.521 376.271 389.354 371.979 391.562 368.062C393.771 364.104 396.396 360.938 399.438 358.562C402.479 356.146 405.938 354.938 409.812 354.938ZM477.438 350.688C477.312 351.396 477.104 352.354 476.812 353.562C476.521 354.771 476.167 356.125 475.75 357.625C475.333 359.125 474.875 360.667 474.375 362.25H474.625C476.083 360.375 477.542 358.917 479 357.875C480.458 356.792 481.979 356.042 483.562 355.625C485.188 355.167 486.938 354.938 488.812 354.938C491.688 354.938 494.188 355.792 496.312 357.5C498.479 359.208 500.167 361.625 501.375 364.75C502.583 367.875 503.188 371.604 503.188 375.938C503.188 379.938 502.792 384.292 502 389C501.25 393.667 500.104 398.312 498.562 402.938C497.021 407.562 495.083 411.792 492.75 415.625C490.458 419.417 487.771 422.479 484.688 424.812C481.604 427.104 478.125 428.25 474.25 428.25C472.292 428.25 470.5 427.917 468.875 427.25C467.292 426.583 465.875 425.625 464.625 424.375C463.417 423.083 462.354 421.521 461.438 419.688H461.062L457.375 427H440.688L461.438 329.75H481.938L477.438 350.688ZM160 331C186.51 331 208 352.49 208 379C208 405.51 186.51 427 160 427C133.49 427 112 405.51 112 379C112 352.49 133.49 331 160 331ZM266 331C292.51 331 314 352.49 314 379C314 405.51 292.51 427 266 427C239.49 427 218 405.51 218 379C218 352.49 239.49 331 266 331ZM366.938 427H346.312L367.062 329.75H387.562L366.938 427ZM414.062 372.75C412.771 372.75 411.542 373.521 410.375 375.062C409.25 376.604 408.229 378.604 407.312 381.062C406.396 383.521 405.604 386.167 404.938 389C404.312 391.792 403.812 394.5 403.438 397.125C403.104 399.75 402.938 401.979 402.938 403.812C402.938 406.188 403.167 407.979 403.625 409.188C404.125 410.396 404.833 411 405.75 411C407.583 411 409.146 410.021 410.438 408.062C411.771 406.062 412.875 403.667 413.75 400.875C414.625 398.083 415.312 395.479 415.812 393.062C416.729 389.104 417.292 386.188 417.5 384.312C417.75 382.396 417.875 380.833 417.875 379.625C417.875 377.25 417.562 375.521 416.938 374.438C416.312 373.312 415.354 372.75 414.062 372.75ZM478.875 372.75C477.625 372.75 476.458 373.292 475.375 374.375C474.292 375.417 473.292 376.833 472.375 378.625C471.5 380.417 470.729 382.438 470.062 384.688C469.396 386.896 468.812 389.188 468.312 391.562C467.854 393.896 467.5 396.146 467.25 398.312C467.042 400.479 466.938 402.396 466.938 404.062C466.938 406.438 467.25 408.188 467.875 409.312C468.542 410.438 469.521 411 470.812 411C471.896 411 472.979 410.25 474.062 408.75C475.146 407.208 476.146 405.229 477.062 402.812C478.021 400.354 478.854 397.708 479.562 394.875C480.312 392.042 480.896 389.292 481.312 386.625C481.729 383.958 481.938 381.667 481.938 379.75C481.938 377.417 481.667 375.667 481.125 374.5C480.625 373.333 479.875 372.75 478.875 372.75ZM160 367C153.373 367 148 372.373 148 379C148 385.627 153.373 391 160 391C166.627 391 172 385.627 172 379C172 372.373 166.627 367 160 367ZM254 368C247.925 368 243 372.925 243 379C243 385.075 247.925 390 254 390H278C284.075 390 289 385.075 289 379C289 372.925 284.075 368 278 368H254ZM160 209C186.51 209 208 230.49 208 257C208 283.51 186.51 305 160 305C133.49 305 112 283.51 112 257C112 230.49 133.49 209 160 209ZM371.81 209C398.314 209 420 230.49 420 257C420 283.51 398.424 305 371.81 305C342 305 337.674 287 318.799 287C299.924 287 295.499 305 266.19 305C239.576 305 218 283.51 218 257C218 230.49 239.576 209 266.19 209C296.499 209 301 228.5 318.799 228.5C336.598 228.5 341.5 209 371.81 209Z" fill="white"/>
</svg>
