<svg width="1280" height="480" viewBox="0 0 1280 480" fill="none" xmlns="http://www.w3.org/2000/svg">
<path d="M482.799 270.25C463.924 270.25 459.5 288.25 430.191 288.25C403.576 288.25 382 266.76 382 240.25C382 213.74 403.576 192.25 430.191 192.25C460.5 192.25 465 211.75 482.799 211.75C500.598 211.75 505.5 192.25 535.809 192.25C562.314 192.25 584 213.74 584 240.25C584 266.76 562.424 288.25 535.809 288.25C506 288.25 501.674 270.25 482.799 270.25Z" fill="white"/>
<path d="M372 240C372 266.51 350.51 288 324 288C297.49 288 276 266.51 276 240C276 213.49 297.49 192 324 192C350.51 192 372 213.49 372 240Z" fill="white"/>
<path d="M748 192C774.51 192 796 213.49 796 240C796 266.51 774.51 288 748 288C721.49 288 700 266.51 700 240C700 213.49 721.49 192 748 192ZM736 229C729.925 229 725 233.925 725 240C725 246.075 729.925 251 736 251H760C766.075 251 771 246.075 771 240C771 233.925 766.075 229 760 229H736Z" fill="white"/>
<path d="M642 192C668.51 192 690 213.49 690 240C690 266.51 668.51 288 642 288C615.49 288 594 266.51 594 240C594 213.49 615.49 192 642 192ZM642 228C635.373 228 630 233.373 630 240C630 246.627 635.373 252 642 252C648.627 252 654 246.627 654 240C654 233.373 648.627 228 642 228Z" fill="white"/>
<path d="M989.25 289.812C985.958 289.812 983.458 289.083 981.75 287.625C980.083 286.125 979.25 283.938 979.25 281.062C979.25 277.104 980.5 273.583 983 270.5C985.5 267.417 989.104 265.875 993.812 265.875C996.688 265.875 998.938 266.625 1000.56 268.125C1002.23 269.625 1003.06 271.729 1003.06 274.438C1003.06 279.104 1001.65 282.833 998.812 285.625C996.021 288.417 992.833 289.812 989.25 289.812Z" fill="white"/>
<path d="M949.25 289.5C947.292 289.5 945.5 289.167 943.875 288.5C942.292 287.833 940.875 286.875 939.625 285.625C938.417 284.333 937.354 282.771 936.438 280.938H936.062L932.375 288.25H915.688L936.438 191H956.938L952.438 211.938C952.312 212.646 952.104 213.604 951.812 214.812C951.521 216.021 951.167 217.375 950.75 218.875C950.333 220.375 949.875 221.917 949.375 223.5H949.625C951.083 221.625 952.542 220.167 954 219.125C955.458 218.042 956.979 217.292 958.562 216.875C960.188 216.417 961.938 216.188 963.812 216.188C966.688 216.188 969.188 217.042 971.312 218.75C973.479 220.458 975.167 222.875 976.375 226C977.583 229.125 978.188 232.854 978.188 237.188C978.188 241.188 977.792 245.542 977 250.25C976.25 254.917 975.104 259.562 973.562 264.188C972.021 268.812 970.083 273.042 967.75 276.875C965.458 280.667 962.771 283.729 959.688 286.062C956.604 288.354 953.125 289.5 949.25 289.5ZM945.812 272.25C946.896 272.25 947.979 271.5 949.062 270C950.146 268.458 951.146 266.479 952.062 264.062C953.021 261.604 953.854 258.958 954.562 256.125C955.312 253.292 955.896 250.542 956.312 247.875C956.729 245.208 956.938 242.917 956.938 241C956.938 238.667 956.667 236.917 956.125 235.75C955.625 234.583 954.875 234 953.875 234C952.625 234 951.458 234.542 950.375 235.625C949.292 236.667 948.292 238.083 947.375 239.875C946.5 241.667 945.729 243.688 945.062 245.938C944.396 248.146 943.812 250.438 943.312 252.812C942.854 255.146 942.5 257.396 942.25 259.562C942.042 261.729 941.938 263.646 941.938 265.312C941.938 267.688 942.25 269.438 942.875 270.562C943.542 271.688 944.521 272.25 945.812 272.25Z" fill="white"/>
<path d="M871.5 289.5C868.5 289.5 865.896 288.646 863.688 286.938C861.479 285.188 859.771 282.729 858.562 279.562C857.396 276.396 856.812 272.646 856.812 268.312C856.812 264.688 857.167 260.583 857.875 256C858.583 251.417 859.646 246.812 861.062 242.188C862.521 237.521 864.354 233.229 866.562 229.312C868.771 225.354 871.396 222.188 874.438 219.812C877.479 217.396 880.938 216.188 884.812 216.188C886.604 216.188 888.292 216.5 889.875 217.125C891.5 217.75 892.958 218.771 894.25 220.188C895.583 221.604 896.667 223.521 897.5 225.938H897.875L901.188 217.438H919.125L904 288.25H887.375L886.875 279.812H886.375C884.917 281.646 883.458 283.292 882 284.75C880.583 286.208 879.021 287.375 877.312 288.25C875.646 289.083 873.708 289.5 871.5 289.5ZM880.75 272.25C882.583 272.25 884.146 271.271 885.438 269.312C886.771 267.312 887.875 264.917 888.75 262.125C889.625 259.333 890.312 256.729 890.812 254.312C891.729 250.354 892.292 247.438 892.5 245.562C892.75 243.646 892.875 242.083 892.875 240.875C892.875 238.5 892.562 236.771 891.938 235.688C891.312 234.562 890.354 234 889.062 234C887.771 234 886.542 234.771 885.375 236.312C884.25 237.854 883.229 239.854 882.312 242.312C881.396 244.771 880.604 247.417 879.938 250.25C879.312 253.042 878.812 255.75 878.438 258.375C878.104 261 877.938 263.229 877.938 265.062C877.938 267.438 878.167 269.229 878.625 270.438C879.125 271.646 879.833 272.25 880.75 272.25Z" fill="white"/>
<path d="M821.312 288.25L842.062 191H862.562L841.938 288.25H821.312Z" fill="white"/>
</svg>
